HIERARCHY
ROOT Pelvis
{
	OFFSET 0.000000 0.941512 0.000000
	CHANNELS 6 Xposition Yposition Zposition Zrotation Yrotation Xrotation 
	JOINT Pelvis_L_Hip
	{
		OFFSET 0.000000 0.000000 0.000000
		CHANNELS 3 Zrotation Yrotation Xrotation
		JOINT L_Hip
		{
			OFFSET 0.062321 -0.080322 -0.016990
			CHANNELS 3 Zrotation Yrotation Xrotation
			JOINT L_Knee
			{
				OFFSET 0.093051 -0.381305 -0.029784
				CHANNELS 3 Zrotation Yrotation Xrotation
				JOINT L_Ankle
				{
					OFFSET -0.010371 -0.431000 -0.033614
					CHANNELS 3 Zrotation Yrotation Xrotation
					End Site #name: L_Foot
					{
						OFFSET 0.069299 -0.038670 0.119418
					}
				}
			}
		}
	}
	JOINT Pelvis_R_Hip
	{
		OFFSET 0.000000 0.000000 0.000000
		CHANNELS 3 Zrotation Yrotation Xrotation
		JOINT R_Hip
		{
			OFFSET -0.055334 -0.094904 -0.002373
			CHANNELS 3 Zrotation Yrotation Xrotation
			JOINT R_Knee
			{
				OFFSET -0.064207 -0.384370 -0.019592
				CHANNELS 3 Zrotation Yrotation Xrotation
				JOINT R_Ankle
				{
					OFFSET 0.025418 -0.419734 -0.065953
					CHANNELS 3 Zrotation Yrotation Xrotation
					End Site #name: R_Foot
					{
						OFFSET -0.057233 -0.039888 0.132134
					}
				}
			}
		}
	}
	JOINT Pelvis_Spine1
	{
		OFFSET 0.000000 0.000000 0.000000
		CHANNELS 3 Zrotation Yrotation Xrotation
		JOINT Spine1
		{
			OFFSET -0.005562 0.124093 -0.043360
			CHANNELS 3 Zrotation Yrotation Xrotation
			JOINT Spine2
			{
				OFFSET 0.012244 0.139499 0.029894
				CHANNELS 3 Zrotation Yrotation Xrotation
				JOINT Spine3
				{
					OFFSET -0.002556 0.056561 0.009225
					CHANNELS 3 Zrotation Yrotation Xrotation
					JOINT Spine3_Neck
					{
						OFFSET 0.000000 0.000000 0.000000
						CHANNELS 3 Zrotation Yrotation Xrotation
						JOINT Neck
						{
							OFFSET -0.005205 0.217920 -0.024551
							CHANNELS 3 Zrotation Yrotation Xrotation
							End Site #name: Head
							{
								OFFSET 0.002365 0.091850 0.046637
							}
						}
					}
					JOINT Spine3_L_Collar
					{
						OFFSET 0.000000 0.000000 0.000000
						CHANNELS 3 Zrotation Yrotation Xrotation
						JOINT L_Collar
						{
							OFFSET 0.072225 0.116603 -0.009480
							CHANNELS 3 Zrotation Yrotation Xrotation
							JOINT L_Shoulder
							{
								OFFSET 0.115937 -0.058643 -0.021018
								CHANNELS 3 Zrotation Yrotation Xrotation
								JOINT L_Elbow
								{
									OFFSET 0.021994 -0.254722 -0.024492
									CHANNELS 3 Zrotation Yrotation Xrotation
									End Site #name: L_Wrist
									{
										OFFSET 0.048810 -0.240214 0.103329
									}
								}
							}
						}
					}
					JOINT Spine3_R_Collar
					{
						OFFSET 0.000000 0.000000 0.000000
						CHANNELS 3 Zrotation Yrotation Xrotation
						JOINT R_Collar
						{
							OFFSET -0.073372 0.120704 -0.024611
							CHANNELS 3 Zrotation Yrotation Xrotation
							JOINT R_Shoulder
							{
								OFFSET -0.108089 -0.054969 -0.020504
								CHANNELS 3 Zrotation Yrotation Xrotation
								JOINT R_Elbow
								{
									OFFSET -0.033684 -0.260739 0.009889
									CHANNELS 3 Zrotation Yrotation Xrotation
									End Site #name: R_Wrist
									{
										OFFSET -0.067980 -0.232763 0.118463
									}
								}
							}
						}
					}
				}
			}
		}
	}
}
MOTION
Frames: 16
Frame Time: 0.041667
0.000000 0.945696 0.000000 -0.761015 2.175093 0.992073 0.000000 0.000000 0.000000 -1.103855 1.025156 3.705629 0.102381 0.026579 -1.389952 1.546971 -2.790893 -4.036694 0.000000 0.000000 0.000000 -0.749126 -0.203048 1.482259 -0.669216 0.040875 -1.005348 1.158931 7.531026 -2.201233 0.000000 0.000000 0.000000 -0.559096 0.394325 -3.217000 1.366493 -0.157110 2.048956 0.029316 -0.964272 -0.411910 0.000000 0.000000 0.000000 1.505712 -0.739029 -0.549719 0.000000 0.000000 0.000000 -0.394432 -1.873701 -1.017716 -1.579604 -0.062613 -2.104635 2.428586 1.554760 2.922856 0.000000 0.000000 0.000000 1.607629 -3.616071 1.467965 0.251229 -0.193401 1.545359 -4.083435 -2.523087 1.919191 
0.000008 0.945652 0.000059 -0.845312 2.190951 0.919879 0.000000 0.000000 0.000000 -0.995416 1.025929 3.760271 0.095182 0.026523 -1.369298 1.553612 -2.826545 -4.064086 0.000000 0.000000 0.000000 -0.627250 -0.222634 1.553586 -0.723938 0.048633 -1.012713 1.193679 7.569326 -2.150186 0.000000 0.000000 0.000000 -0.359107 0.317998 -2.759717 1.108501 -0.133791 1.369189 0.196840 -0.889734 0.107146 0.000000 0.000000 0.000000 1.231315 -0.568866 -1.363728 0.000000 0.000000 0.000000 -0.465755 -1.684553 -0.934054 -1.436768 -0.139622 -2.781805 2.270968 1.525085 3.113471 0.000000 0.000000 0.000000 1.515296 -3.619504 1.489146 0.331239 -0.136763 1.129502 -4.083515 -2.533979 1.965018 
-0.000067 0.945743 0.000024 -0.856782 2.222264 1.086772 0.000000 0.000000 0.000000 -0.972271 0.970127 3.548395 0.085682 0.026713 -1.352434 1.556957 -2.821146 -4.066604 0.000000 0.000000 0.000000 -0.602851 -0.188754 1.338311 -0.699546 0.046713 -0.986956 1.189572 7.530954 -2.137525 0.000000 0.000000 0.000000 -0.344261 0.295910 -2.532905 1.019034 -0.127795 1.098542 0.233345 -0.837139 0.164479 0.000000 0.000000 0.000000 1.034144 -0.461817 -1.606627 0.000000 0.000000 0.000000 -0.469120 -1.721138 -0.953403 -1.339653 -0.173172 -3.053251 2.112763 1.416270 2.850797 0.000000 0.000000 0.000000 1.470085 -3.509557 1.445754 0.366071 -0.097749 0.840692 -4.013990 -2.467841 1.827714 
-0.000405 0.945997 -0.000466 -0.857653 2.238168 1.319693 0.000000 0.000000 0.000000 -0.946767 0.891133 3.243985 0.047012 0.028425 -1.321138 1.569702 -2.772109 -4.064544 0.000000 0.000000 0.000000 -0.587893 -0.137332 1.020922 -0.678795 0.047068 -0.934437 1.187001 7.475225 -2.111482 0.000000 0.000000 0.000000 -0.352385 0.262875 -2.129650 0.930917 -0.123601 0.796623 0.293146 -0.777602 0.197592 0.000000 0.000000 0.000000 0.807964 -0.341827 -1.844961 0.000000 0.000000 0.000000 -0.435165 -1.778517 -0.976963 -1.250846 -0.199034 -3.255873 1.947634 1.301462 2.575949 0.000000 0.000000 0.000000 1.396790 -3.339176 1.378916 0.319786 -0.053438 0.493660 -3.822422 -2.312333 1.566056 
-0.001053 0.946428 -0.001773 -0.861899 2.255667 1.637462 0.000000 0.000000 0.000000 -0.909088 0.759694 2.734341 -0.008626 0.028695 -1.181439 1.583488 -2.652954 -4.030303 0.000000 0.000000 0.000000 -0.559432 -0.059487 0.539030 -0.665862 0.049725 -0.864540 1.196106 7.382074 -2.039322 0.000000 0.000000 0.000000 -0.369189 0.209943 -1.478652 0.825989 -0.120354 0.409442 0.396391 -0.704911 0.280260 0.000000 0.000000 0.000000 0.588378 -0.224440 -2.130609 0.000000 0.000000 0.000000 -0.336920 -1.881147 -1.012742 -1.243165 -0.218145 -3.446654 1.876835 1.249375 2.444270 0.000000 0.000000 0.000000 1.244145 -3.128297 1.309061 0.252508 0.003220 0.044342 -3.604759 -2.141809 1.298661 
-0.001975 0.947084 -0.004107 -0.890020 2.303600 2.137927 0.000000 0.000000 0.000000 -0.856962 0.532161 1.843282 -0.058838 0.023945 -0.835129 1.625312 -2.432785 -3.993090 0.000000 0.000000 0.000000 -0.490494 0.062471 -0.221165 -0.657950 0.053641 -0.787107 1.206215 7.208168 -1.918893 0.000000 0.000000 0.000000 -0.391923 0.139834 -0.617629 0.742964 -0.122822 -0.012567 0.521308 -0.613455 0.385729 0.000000 0.000000 0.000000 0.341605 -0.093508 -2.464372 0.000000 0.000000 0.000000 -0.151885 -2.017655 -1.051638 -1.315847 -0.232663 -3.642499 1.928059 1.278601 2.491180 0.000000 0.000000 0.000000 1.007680 -2.901732 1.248607 0.166333 0.063658 -0.443982 -3.494379 -2.044636 1.123236 
-0.003069 0.947937 -0.007615 -0.948192 2.404321 2.956982 0.000000 0.000000 0.000000 -0.806530 0.165250 0.385096 -0.071152 0.010451 -0.217820 1.746604 -2.104764 -4.035064 0.000000 0.000000 0.000000 -0.367357 0.263358 -1.465919 -0.672622 0.068681 -0.593885 1.168593 6.911746 -1.828915 0.000000 0.000000 0.000000 -0.422886 0.056893 0.406637 0.729397 -0.135457 -0.390259 0.625450 -0.498360 0.434669 0.000000 0.000000 0.000000 0.054970 0.059575 -2.938645 0.000000 0.000000 0.000000 0.022926 -2.082085 -1.055907 -1.275777 -0.249900 -3.788782 2.002613 1.326990 2.595510 0.000000 0.000000 0.000000 0.813785 -2.716947 1.198736 -0.092699 0.105193 -0.849063 -3.517202 -2.024543 0.997644 
-0.004288 0.948906 -0.012371 -1.015268 2.539618 4.136692 0.000000 0.000000 0.000000 -0.777677 -0.342287 -1.657691 -0.028830 -0.013370 0.650224 1.966783 -1.716530 -4.214294 0.000000 0.000000 0.000000 -0.198953 0.567857 -3.325722 -0.765069 0.115084 -0.111003 1.052116 6.524111 -1.854136 0.000000 0.000000 0.000000 -0.493095 -0.042237 1.705919 0.791430 -0.156440 -0.671320 0.704374 -0.338447 0.397487 0.000000 0.000000 0.000000 -0.267656 0.236157 -3.741378 0.000000 0.000000 0.000000 0.073127 -2.010863 -1.011650 -0.935062 -0.279372 -3.873566 1.904287 1.271824 2.505596 0.000000 0.000000 0.000000 0.754888 -2.542355 1.124984 -0.643196 0.103466 -1.024986 -3.533312 -1.940758 0.627803 
-0.005629 0.949946 -0.018192 -1.042260 2.674048 5.506361 0.000000 0.000000 0.000000 -0.782527 -0.917558 -3.992456 0.038462 -0.042273 1.596102 2.201434 -1.355704 -4.433360 0.000000 0.000000 0.000000 -0.077259 0.947590 -5.606952 -0.944026 0.197089 0.680441 0.917916 6.193704 -1.951918 0.000000 0.000000 0.000000 -0.618572 -0.185082 3.635021 0.823183 -0.171583 -0.930776 0.815206 -0.103675 0.440516 0.000000 0.000000 0.000000 -0.614224 0.431195 -5.075412 0.000000 0.000000 0.000000 -0.009897 -1.917021 -0.978372 -0.324603 -0.327732 -4.002451 1.645063 1.089918 2.078333 0.000000 0.000000 0.000000 0.770728 -2.246233 0.975550 -1.349323 0.070538 -1.002754 -3.383431 -1.635315 -0.294555 
-0.006906 0.951094 -0.024793 -0.985558 2.800997 6.817020 0.000000 0.000000 0.000000 -0.849110 -1.476225 -6.272311 0.095257 -0.070078 2.482633 2.356693 -1.023218 -4.532158 0.000000 0.000000 0.000000 -0.105352 1.336799 -7.939916 -1.190829 0.304601 1.637988 0.849421 6.018834 -1.999879 0.000000 0.000000 0.000000 -0.771885 -0.415725 6.601500 0.697422 -0.166018 -1.285121 1.018258 0.202598 0.783470 0.000000 0.000000 0.000000 -1.006334 0.649178 -7.025921 0.000000 0.000000 0.000000 -0.131554 -2.078584 -1.082294 0.309825 -0.389863 -4.303681 1.356955 0.838251 1.357975 0.000000 0.000000 0.000000 0.688501 -1.597053 0.670777 -1.864606 0.058890 -1.083590 -3.169105 -1.203222 -1.563338 
-0.007743 0.952335 -0.032205 -0.870832 2.893236 8.137468 0.000000 0.000000 0.000000 -0.980031 -2.060011 -8.649732 0.147951 -0.100728 3.447849 2.482800 -0.513840 -4.493316 0.000000 0.000000 0.000000 -0.222321 1.743743 -10.417713 -1.594531 0.457250 2.769119 0.820311 5.839385 -1.958680 0.000000 0.000000 0.000000 -0.925008 -0.744035 10.584558 0.450095 -0.147247 -1.739325 1.330125 0.560453 1.360725 0.000000 0.000000 0.000000 -1.572339 0.927658 -9.322180 0.000000 0.000000 0.000000 -0.137342 -2.793425 -1.449114 0.606364 -0.440014 -4.720451 1.167711 0.597060 0.501973 0.000000 0.000000 0.000000 0.227998 -0.230448 0.075361 -1.887386 0.096329 -1.412583 -3.074145 -0.889615 -2.588327 
-0.007944 0.952990 -0.040806 -0.782737 2.856860 10.037438 0.000000 0.000000 0.000000 -1.044317 -2.896030 -12.032180 0.161436 -0.144389 5.022268 2.808386 0.526088 -4.534726 0.000000 0.000000 0.000000 -0.245384 2.319468 -13.938188 -2.328180 0.728545 4.491286 0.669406 5.326376 -1.981605 0.000000 0.000000 0.000000 -1.148357 -1.092214 15.006583 0.332257 -0.151184 -2.240950 1.704105 0.981633 1.632285 0.000000 0.000000 0.000000 -2.457616 1.300169 -11.416182 0.000000 0.000000 0.000000 0.154197 -4.078545 -2.064323 0.252121 -0.450454 -5.060304 1.070078 0.397190 -0.321300 0.000000 0.000000 0.000000 -0.887564 2.093315 -0.923763 -1.426246 0.150513 -1.698984 -3.003273 -0.745427 -2.999351 
-0.007564 0.951188 -0.050110 -0.763511 2.711116 12.909174 0.000000 0.000000 0.000000 -0.717190 -4.175392 -17.305647 -0.128110 -0.186001 8.135901 3.615443 2.255029 -5.073622 0.000000 0.000000 0.000000 -0.155806 3.196270 -19.257770 -3.355331 1.197012 7.487738 0.194269 4.225976 -2.367539 0.000000 0.000000 0.000000 -1.532252 -1.366065 19.402960 0.528140 -0.207657 -2.929712 2.086039 1.477871 1.154945 0.000000 0.000000 0.000000 -3.626251 1.738637 -13.071656 0.000000 0.000000 0.000000 0.778104 -5.641545 -2.791352 -0.662477 -0.438202 -5.392915 0.959581 0.230765 -0.929109 0.000000 0.000000 0.000000 -2.578208 5.147797 -2.313144 -0.875338 0.182509 -1.753349 -2.679131 -0.631391 -2.769446 
-0.006389 0.944413 -0.057825 -0.435378 2.799551 17.243028 0.000000 0.000000 0.000000 0.048095 -6.132340 -25.767137 -1.251793 -0.118886 14.543922 5.614213 4.959827 -7.295553 0.000000 0.000000 0.000000 -0.919480 4.348461 -27.180502 -3.832670 1.787273 12.805448 -1.081134 2.006982 -3.941137 0.000000 0.000000 0.000000 -2.409367 -1.170746 21.265346 1.351654 -0.246902 -0.729651 2.956163 1.950480 -1.898263 0.000000 0.000000 0.000000 -5.281946 2.409480 -10.213474 0.000000 0.000000 0.000000 -0.726196 -8.994091 -4.723918 0.202188 -0.264646 -2.878461 1.732102 0.089205 -3.430141 0.000000 0.000000 0.000000 -4.608885 8.097166 -3.756152 -0.928348 0.163260 -1.627279 -2.084059 -0.510250 -2.027455 
-0.005667 0.930103 -0.058590 -0.632063 3.056929 19.181770 0.000000 0.000000 0.000000 2.120298 -7.330944 -32.370702 -3.733057 0.435802 22.723199 7.653629 7.314508 -9.933669 0.000000 0.000000 0.000000 -0.984907 5.205115 -32.924286 -3.994848 2.476672 19.924445 -2.605339 -0.007961 -6.388205 0.000000 0.000000 0.000000 -2.419781 -1.689193 26.448866 1.216292 -0.294330 -2.695541 3.634046 2.583209 -2.391481 0.000000 0.000000 0.000000 -6.185094 2.760815 -10.379095 0.000000 0.000000 0.000000 -1.031659 -11.367973 -5.983674 0.772677 -0.329678 -3.244982 2.211626 0.423844 -2.818216 0.000000 0.000000 0.000000 -5.902441 12.054963 -6.000595 -1.703050 0.077413 -1.207521 -1.393839 -0.676834 -0.111090 
-0.005411 0.906927 -0.050230 -0.552941 3.328217 18.980689 0.000000 0.000000 0.000000 4.017999 -8.027639 -37.230171 -7.162366 1.758695 32.796995 10.023619 9.922075 -13.293335 0.000000 0.000000 0.000000 -1.089541 5.745414 -36.854064 -3.794372 3.225570 29.218574 -4.519170 -2.219393 -9.924679 0.000000 0.000000 0.000000 -2.685125 -2.102805 31.589953 0.864216 -0.311571 -4.429399 4.109574 3.178797 -2.408424 0.000000 0.000000 0.000000 -6.327009 2.843923 -9.783605 0.000000 0.000000 0.000000 -1.619522 -14.371518 -7.578959 2.460110 -0.489692 -4.212969 3.262787 1.366676 -0.145660 0.000000 0.000000 0.000000 -7.261681 16.466834 -8.702698 -2.222354 -0.034026 -0.388698 -0.581107 -0.903052 2.158375 
